<svg width="64" height="64" xmlns="http://www.w3.org/2000/svg" xmlns:xlink="http://www.w3.org/1999/xlink" xml:space="preserve" overflow="hidden"><g transform="translate(-632 -352)"><g><g><g><g><path d="M632 397.281C632 396.194 632.881 395.312 633.969 395.312L641.844 395.312C642.931 395.312 643.812 396.194 643.812 397.281L643.812 405.156C643.812 406.243 642.931 407.125 641.844 407.125L633.969 407.125C632.881 407.125 632 406.243 632 405.156ZM647.75 385.469C647.75 384.381 648.631 383.5 649.719 383.5L657.594 383.5C658.681 383.5 659.562 384.381 659.562 385.469L659.562 405.156C659.562 406.243 658.681 407.125 657.594 407.125L649.719 407.125C648.631 407.125 647.75 406.243 647.75 405.156ZM663.5 373.656C663.5 372.569 664.381 371.688 665.469 371.688L673.344 371.688C674.431 371.688 675.312 372.569 675.312 373.656L675.312 405.156C675.312 406.243 674.431 407.125 673.344 407.125L665.469 407.125C664.381 407.125 663.5 406.243 663.5 405.156ZM679.25 361.844C679.25 360.756 680.132 359.875 681.219 359.875L689.094 359.875C690.181 359.875 691.062 360.756 691.062 361.844L691.062 405.156C691.062 406.243 690.181 407.125 689.094 407.125L681.219 407.125C680.132 407.125 679.25 406.243 679.25 405.156Z" stroke="#000000" stroke-width="0.333333" stroke-linecap="butt" stroke-linejoin="miter" stroke-miterlimit="4" stroke-opacity="1" fill="#000000" fill-rule="nonzero" fill-opacity="1"/></g></g></g></g></g></svg>