<svg width="46" height="46" xmlns="http://www.w3.org/2000/svg" xmlns:xlink="http://www.w3.org/1999/xlink" xml:space="preserve" overflow="hidden"><defs><clipPath id="clip0"><rect x="632" y="352" width="46" height="46"/></clipPath><clipPath id="clip1"><rect x="632" y="352" width="46" height="46"/></clipPath></defs><g clip-path="url(#clip0)" transform="translate(-632 -352)"><g clip-path="url(#clip1)"><path d="M649.25 387.938C649.25 387.144 649.894 386.5 650.688 386.5L659.312 386.5C660.106 386.5 660.75 387.144 660.75 387.938 660.75 388.731 660.106 389.375 659.312 389.375L650.688 389.375C649.894 389.375 649.25 388.731 649.25 387.938M640.625 375.178C640.625 371.435 644.176 368.574 647.899 368.922 652.623 369.363 657.377 369.363 662.101 368.922 665.824 368.574 669.375 371.435 669.375 375.178L669.375 378.505C669.403 379.82 668.47 380.96 667.176 381.193 664.746 381.615 660.448 382.188 655 382.188 649.552 382.188 645.254 381.612 642.824 381.193 641.53 380.96 640.597 379.82 640.625 378.505ZM653.683 372.801C653.456 372.762 653.224 372.835 653.059 372.996L650.414 375.584C648.615 375.476 646.821 375.3 645.035 375.057 644.64 375.018 644.288 375.307 644.249 375.702 644.212 376.076 644.469 376.415 644.84 376.481 646.421 376.699 648.382 376.909 650.647 377.035 650.849 377.047 651.046 376.973 651.191 376.831L653.358 374.715 655.794 379.632C655.97 379.987 656.402 380.132 656.757 379.955 656.831 379.918 656.898 379.869 656.955 379.81L659.635 377.021C661.483 376.912 663.326 376.732 665.16 376.481 665.551 376.412 665.812 376.039 665.744 375.648 665.679 375.278 665.339 375.02 664.965 375.057 663.418 375.27 661.495 375.474 659.272 375.601 659.091 375.611 658.921 375.689 658.795 375.819L656.627 378.076 654.206 373.189C654.104 372.983 653.91 372.839 653.683 372.801" stroke="#000000" stroke-width="0.958333" stroke-linecap="butt" stroke-linejoin="miter" stroke-miterlimit="4" stroke-opacity="1" fill="#000000" fill-rule="nonzero" fill-opacity="1"/><path d="M656.438 357.365C657.813 356.571 658.284 354.813 657.49 353.437 656.696 352.062 654.938 351.591 653.562 352.385 652.187 353.179 651.716 354.937 652.51 356.312 652.763 356.749 653.125 357.112 653.562 357.365L653.562 360.625 647.812 360.625C640.667 360.625 634.875 366.417 634.875 373.562L634.875 375C633.287 375 632 376.287 632 377.875L632 383.625C632 385.213 633.287 386.5 634.875 386.5L634.875 389.375C634.875 392.551 637.449 395.125 640.625 395.125L669.375 395.125C672.551 395.125 675.125 392.551 675.125 389.375L675.125 386.5C676.713 386.5 678 385.213 678 383.625L678 377.875C678 376.287 676.713 375 675.125 375L675.125 373.562C675.125 366.417 669.333 360.625 662.188 360.625L656.438 360.625ZM672.25 373.562 672.25 389.375C672.25 390.963 670.963 392.25 669.375 392.25L640.625 392.25C639.037 392.25 637.75 390.963 637.75 389.375L637.75 373.562C637.75 368.005 642.255 363.5 647.812 363.5L662.188 363.5C667.745 363.5 672.25 368.005 672.25 373.562" stroke="#000000" stroke-width="0.958333" stroke-linecap="butt" stroke-linejoin="miter" stroke-miterlimit="4" stroke-opacity="1" fill="#000000" fill-rule="nonzero" fill-opacity="1"/></g></g></svg>