<svg width="65" height="66" xmlns="http://www.w3.org/2000/svg" xmlns:xlink="http://www.w3.org/1999/xlink" xml:space="preserve" overflow="hidden"><defs><clipPath id="clip0"><rect x="689" y="195" width="64" height="64"/></clipPath><clipPath id="clip1"><rect x="689" y="195" width="64" height="64"/></clipPath><clipPath id="clip2"><rect x="689" y="195" width="64" height="64"/></clipPath></defs><g transform="translate(-688 -194)"><g><g clip-path="url(#clip0)"><g clip-path="url(#clip1)"><g clip-path="url(#clip2)"><path d="M729.852 200.884 732.616 195.844C732.8 195.513 732.736 195.257 732.424 195.076 732.083 194.924 731.823 195.001 731.644 195.308L728.844 200.388C726.379 199.304 723.713 198.751 721.02 198.764 718.268 198.764 715.66 199.303 713.196 200.38L710.396 195.3C710.215 195.001 709.955 194.928 709.616 195.08 709.304 195.264 709.239 195.521 709.42 195.852L712.184 200.888C709.467 202.225 707.157 204.263 705.492 206.792 703.854 209.245 702.986 212.131 703 215.08L739 215.08C739 212.08 738.169 209.317 736.508 206.792 734.85 204.271 732.553 202.233 729.852 200.888ZM713.88 208.212C713.598 208.497 713.213 208.656 712.812 208.652 712.415 208.661 712.032 208.501 711.76 208.212 711.482 207.931 711.328 207.551 711.332 207.156 711.327 206.76 711.481 206.378 711.76 206.096 712.032 205.807 712.415 205.647 712.812 205.656 713.225 205.656 713.581 205.803 713.88 206.096 714.17 206.372 714.332 206.756 714.328 207.156 714.331 207.555 714.169 207.937 713.88 208.212M730.284 208.212C730.012 208.5 729.632 208.66 729.236 208.652 728.834 208.657 728.447 208.498 728.164 208.212 727.875 207.937 727.713 207.555 727.716 207.156 727.716 206.745 727.865 206.392 728.164 206.096 728.447 205.81 728.834 205.651 729.236 205.656 729.649 205.656 729.999 205.803 730.284 206.096 730.563 206.378 730.717 206.76 730.712 207.156 730.712 207.564 730.569 207.916 730.284 208.212M703 242.08C703 243.256 703.415 244.256 704.244 245.08 705.073 245.896 706.087 246.305 707.284 246.308L710.316 246.308 710.356 255.036C710.356 256.14 710.745 257.077 711.524 257.848 712.26 258.599 713.272 259.016 714.324 259 715.389 259.022 716.416 258.606 717.164 257.848 717.928 257.114 718.352 256.095 718.332 255.036L718.332 246.308 723.704 246.308 723.704 255.036C723.704 256.14 724.093 257.077 724.872 257.848 725.62 258.606 726.647 259.022 727.712 259 728.777 259.022 729.804 258.606 730.552 257.848 731.316 257.114 731.74 256.095 731.72 255.036L731.72 246.308 734.76 246.308C735.923 246.308 736.921 245.897 737.756 245.076 738.583 244.257 738.997 243.257 739 242.076L739 216.46 703 216.46ZM744.98 215.732C743.933 215.713 742.922 216.113 742.172 216.844 741.404 217.545 740.976 218.544 741 219.584L741 235.836C741 236.919 741.391 237.839 742.172 238.596 742.916 239.34 743.929 239.75 744.98 239.732 746.1 239.732 747.049 239.353 747.828 238.596 748.593 237.884 749.019 236.881 749 235.836L749 219.584C749.024 218.544 748.596 217.545 747.828 216.844 747.063 216.111 746.039 215.711 744.98 215.732M694.172 216.864C694.933 216.124 695.958 215.716 697.02 215.732 698.113 215.732 699.049 216.109 699.828 216.864 700.591 217.561 701.018 218.551 701 219.584L701 235.836C701.019 236.877 700.601 237.878 699.848 238.596 699.1 239.344 698.078 239.755 697.02 239.732 695.957 239.747 694.933 239.338 694.172 238.596 693.407 237.884 692.981 236.881 693 235.836L693 219.584C693 218.528 693.391 217.621 694.172 216.864" stroke="#000000" stroke-width="1.33333" stroke-linecap="butt" stroke-linejoin="miter" stroke-miterlimit="4" stroke-opacity="1" fill="none" fill-rule="nonzero"/></g></g></g></g></g></svg>