<svg width="48" height="50" xmlns="http://www.w3.org/2000/svg" xmlns:xlink="http://www.w3.org/1999/xlink" xml:space="preserve" overflow="hidden"><g transform="translate(-536 -170)"><g><g><g><g><path d="M570.272 195C571.583 194.844 572.705 194.592 573.392 194.196 576.251 192.52 577.209 188.844 575.534 185.985 573.873 183.154 570.246 182.182 567.392 183.804 566.705 184.2 565.925 185.046 565.136 186.105 565.658 184.89 566 183.792 566 183 566 179.686 563.314 177 560 177 556.686 177 554 179.686 554 183 554 183.792 554.342 184.89 554.864 186.105 554.075 185.046 553.295 184.2 552.608 183.804 549.727 182.166 546.064 183.174 544.427 186.054 542.804 188.908 543.776 192.536 546.608 194.196 547.295 194.592 548.417 194.844 549.728 195 548.417 195.156 547.295 195.408 546.608 195.804 543.727 197.442 542.72 201.105 544.358 203.985 545.995 206.866 549.658 207.874 552.539 206.236 552.562 206.223 552.585 206.21 552.608 206.196 553.295 205.8 554.075 204.954 554.864 203.895 554.342 205.11 554 206.208 554 207 554 210.314 556.686 213 560 213 563.314 213 566 210.314 566 207 566 206.208 565.658 205.11 565.136 203.895 565.925 204.954 566.705 205.8 567.392 206.196 570.251 207.872 573.927 206.913 575.603 204.054 577.279 201.196 576.32 197.52 573.461 195.844 573.438 195.83 573.415 195.817 573.392 195.804 572.705 195.408 571.583 195.156 570.272 195M563 183C562.966 183.207 562.921 183.413 562.865 183.615 562.747 184.015 562.564 184.499 562.316 185.067 561.744 186.323 561.106 187.548 560.405 188.736L560 189.426 559.595 188.736C558.894 187.548 558.256 186.323 557.684 185.067 557.47 184.595 557.286 184.11 557.135 183.615 557.079 183.413 557.034 183.207 557 183 557 181.343 558.343 180 560 180 561.657 180 563 181.343 563 183M547.01 187.5C547.838 186.065 549.673 185.574 551.108 186.402 551.271 186.536 551.428 186.678 551.576 186.828 551.86 187.128 552.186 187.528 552.554 188.028 553.289 189.027 554.06 190.269 554.78 191.517L555.17 192.213 554.375 192.219C552.994 192.232 551.613 192.172 550.238 192.039 549.723 191.989 549.212 191.906 548.708 191.79 548.505 191.737 548.305 191.672 548.108 191.598 546.673 190.77 546.182 188.935 547.01 187.5M551.108 203.598C549.668 204.417 547.836 203.913 547.017 202.473 546.206 201.046 546.692 199.232 548.108 198.402L548.249 198.342C548.359 198.302 548.512 198.258 548.708 198.21 549.112 198.114 549.622 198.031 550.238 197.961 551.613 197.828 552.994 197.768 554.375 197.781 554.645 197.781 554.911 197.783 555.173 197.787L554.78 198.483C554.06 199.731 553.289 200.973 552.554 201.972 552.253 202.393 551.926 202.794 551.573 203.172 551.426 203.322 551.27 203.464 551.108 203.598M563 207C563 208.657 561.657 210 560 210 558.343 210 557 208.657 557 207 557.034 206.792 557.079 206.585 557.135 206.382 557.251 205.986 557.434 205.503 557.684 204.933 558.182 203.799 558.872 202.509 559.595 201.264L560 200.574 560.405 201.264C561.128 202.509 561.815 203.799 562.316 204.933 562.564 205.503 562.747 205.987 562.865 206.385 562.927 206.586 562.972 206.792 563 207M572.99 187.5C573.818 188.935 573.327 190.77 571.892 191.598 571.695 191.672 571.495 191.737 571.292 191.79 570.888 191.886 570.378 191.969 569.762 192.039 568.526 192.174 567.068 192.222 565.625 192.219 565.355 192.219 565.089 192.217 564.827 192.213L565.22 191.517C565.94 190.269 566.711 189.027 567.446 188.028 567.747 187.607 568.075 187.206 568.427 186.828 568.567 186.68 568.681 186.57 568.769 186.498L568.892 186.402C570.327 185.574 572.161 186.065 572.99 187.5M568.892 203.598C568.73 203.465 568.575 203.324 568.427 203.175 568.075 202.797 567.747 202.396 567.446 201.975 566.643 200.85 565.9 199.684 565.22 198.48L564.83 197.784 565.625 197.778C567.065 197.775 568.526 197.823 569.762 197.958 570.378 198.028 570.888 198.111 571.292 198.207 571.488 198.255 571.641 198.299 571.751 198.339L571.895 198.399C573.335 199.218 573.839 201.049 573.02 202.49 572.201 203.93 570.37 204.434 568.93 203.615 568.918 203.608 568.906 203.602 568.895 203.595ZM560 198C558.343 198 557 196.657 557 195 557 193.343 558.343 192 560 192 561.657 192 563 193.343 563 195 563 196.657 561.657 198 560 198" stroke="#000000" stroke-width="1" stroke-linecap="butt" stroke-linejoin="miter" stroke-miterlimit="4" stroke-opacity="1" fill="#000000" fill-rule="nonzero" fill-opacity="1"/></g></g></g></g></g></svg>