<svg width="102" height="101" xmlns="http://www.w3.org/2000/svg" xmlns:xlink="http://www.w3.org/1999/xlink" xml:space="preserve" overflow="hidden"><g transform="translate(-992 -84)"><g><path d="M38.2301 78.9457 75.316 57.7199 17.9512 3.47188Z" fill="#000000" fill-rule="nonzero" fill-opacity="1" transform="matrix(1.0099 0 0 1 992 84)"/><path d="M34.482 67.8594 34.5609 68.175 34.482 67.8594Z" fill="#000000" fill-rule="nonzero" fill-opacity="1" transform="matrix(1.0099 0 0 1 992 84)"/><path d="M21.423 29.1164 3.1957 16.1363 27.7355 72.2781 32.2332 68.7273Z" fill="#000000" fill-rule="nonzero" fill-opacity="1" transform="matrix(1.0099 0 0 1 992 84)"/><path d="M76.2629 54.5637 76.8941 30.8523 63.7168 42.6883Z" fill="#000000" fill-rule="nonzero" fill-opacity="1" transform="matrix(1.0099 0 0 1 992 84)"/><path d="M80.0898 29.9449 79.577 44.6609 98.0805 33.6535Z" fill="#000000" fill-rule="nonzero" fill-opacity="1" transform="matrix(1.0099 0 0 1 992 84)"/><path d="M6.27305 97.5281 35.3105 80.4844 33.1406 72.0809 5.7207 96.4234Z" fill="#000000" fill-rule="nonzero" fill-opacity="1" transform="matrix(1.0099 0 0 1 992 84)"/></g></g></svg>