<svg width="48" height="48" xmlns="http://www.w3.org/2000/svg" xmlns:xlink="http://www.w3.org/1999/xlink" xml:space="preserve" overflow="hidden"><g transform="translate(-632 -352)"><g><path d="M648.575 361.075C652.675 356.974 659.324 356.974 663.424 361.074 663.424 361.074 663.425 361.075 663.425 361.075 664 361.671 664.95 361.687 665.546 361.112 666.142 360.536 666.158 359.587 665.583 358.991 665.571 358.978 665.559 358.966 665.546 358.954 660.274 353.682 651.726 353.682 646.454 358.954 646.454 358.954 646.454 358.954 646.454 358.954 645.878 359.55 645.895 360.499 646.491 361.075 647.072 361.636 647.994 361.636 648.575 361.075" stroke="#000000" stroke-width="1" stroke-linecap="butt" stroke-linejoin="miter" stroke-miterlimit="4" stroke-opacity="1" fill="#000000" fill-rule="nonzero" fill-opacity="1"/><path d="M652.82 365.32C654.577 363.565 657.423 363.565 659.18 365.32 659.767 365.907 660.717 365.907 661.304 365.32 661.891 364.733 661.891 363.783 661.304 363.196 658.375 360.267 653.627 360.266 650.697 363.195 650.697 363.195 650.696 363.196 650.696 363.196 650.12 363.792 650.137 364.741 650.733 365.317 651.314 365.878 652.236 365.878 652.817 365.317ZM639.5 385C638.672 385 638 384.328 638 383.5 638 382.672 638.672 382 639.5 382 640.328 382 641 382.672 641 383.5 641 384.328 640.328 385 639.5 385M653 383.5C653 384.328 653.672 385 654.5 385 655.328 385 656 384.328 656 383.5 656 382.672 655.328 382 654.5 382 653.672 382 653 382.672 653 383.5M660.5 385C659.672 385 659 384.328 659 383.5 659 382.672 659.672 382 660.5 382 661.328 382 662 382.672 662 383.5 662 384.328 661.328 385 660.5 385M665 383.5C665 384.328 665.672 385 666.5 385 667.328 385 668 384.328 668 383.5 668 382.672 667.328 382 666.5 382 665.672 382 665 382.672 665 383.5M671 383.5C671 384.328 671.672 385 672.5 385 673.328 385 674 384.328 674 383.5 674 382.672 673.328 382 672.5 382 671.672 382 671 382.672 671 383.5" stroke="#000000" stroke-width="1" stroke-linecap="butt" stroke-linejoin="miter" stroke-miterlimit="4" stroke-opacity="1" fill="#000000" fill-rule="nonzero" fill-opacity="1"/><path d="M640.922 359.026C640.69 358.231 639.857 357.774 639.062 358.006 638.267 358.238 637.81 359.071 638.042 359.866 638.053 359.902 638.065 359.938 638.078 359.974L643.418 376 636.5 376C634.015 376 632 378.015 632 380.5L632 386.5C632 388.985 634.015 391 636.5 391L638 391C638 391.828 638.672 392.5 639.5 392.5L645.5 392.5C646.328 392.5 647 391.828 647 391L665 391C665 391.828 665.672 392.5 666.5 392.5L672.5 392.5C673.328 392.5 674 391.828 674 391L675.5 391C677.985 391 680 388.985 680 386.5L680 380.5C680 378.015 677.985 376 675.5 376L668.582 376 673.922 359.974C674.214 359.199 673.821 358.334 673.046 358.042 672.271 357.75 671.406 358.143 671.114 358.918 671.101 358.954 671.089 358.99 671.078 359.026L665.42 376 646.58 376ZM675.5 379C676.328 379 677 379.672 677 380.5L677 386.5C677 387.328 676.328 388 675.5 388L636.5 388C635.672 388 635 387.328 635 386.5L635 380.5C635 379.672 635.672 379 636.5 379Z" stroke="#000000" stroke-width="1" stroke-linecap="butt" stroke-linejoin="miter" stroke-miterlimit="4" stroke-opacity="1" fill="#000000" fill-rule="nonzero" fill-opacity="1"/><path d="M657.5 368.5C657.5 369.328 656.828 370 656 370 655.172 370 654.5 369.328 654.5 368.5 654.5 367.672 655.172 367 656 367 656.828 367 657.5 367.672 657.5 368.5" stroke="#000000" stroke-width="1" stroke-linecap="butt" stroke-linejoin="miter" stroke-miterlimit="4" stroke-opacity="1" fill="#000000" fill-rule="nonzero" fill-opacity="1"/></g></g></svg>